<?xml version="1.0" standalone="no"?>
<!DOCTYPE svg PUBLIC "-//W3C//DTD SVG 20010904//EN"
 "http://www.w3.org/TR/2001/REC-SVG-20010904/DTD/svg10.dtd">
<svg version="1.0" xmlns="http://www.w3.org/2000/svg"
 width="338.000000pt" height="338.000000pt" viewBox="0 0 338.000000 338.000000"
 preserveAspectRatio="xMidYMid meet">

<g transform="translate(0.000000,338.000000) scale(0.100000,-0.100000)"
fill="#000000" stroke="none">
<path d="M862 2841 c-228 -58 -432 -238 -521 -462 -59 -147 -73 -293 -46 -472
63 -419 371 -810 896 -1138 161 -100 454 -244 499 -244 24 0 90 27 210 87 321
158 552 319 765 533 151 151 236 266 311 420 166 342 164 689 -6 949 -146 224
-368 346 -630 346 -163 0 -295 -41 -429 -133 -59 -40 -152 -136 -187 -192 -16
-25 -31 -45 -34 -45 -3 0 -17 19 -32 43 -29 46 -131 150 -188 193 -49 36 -134
78 -210 104 -93 32 -295 37 -398 11z"/>
</g>
</svg>
